<?xml version="1.0" encoding="UTF-8"?>
<svg width="79px" height="24px" viewBox="0 0 79 24" version="1.1" xmlns="http://www.w3.org/2000/svg" xmlns:xlink="http://www.w3.org/1999/xlink">
    <title>logo</title>
    <g id="NFT--dapp" stroke="none" stroke-width="1" fill="none" fill-rule="evenodd">
        <g id="dapp-首页" transform="translate(-14, -100)">
            <g id="logo" transform="translate(14, 100)">
                <circle id="椭圆形" fill="#3F80F7" cx="12" cy="12" r="12"></circle>
                <g id="编组" transform="translate(4.3077, 7.3846)" fill="#FFFFFF">
                    <polygon id="矩形" points="0 1.01295061 1.66806988 1.01295061 1.66806988 9.23076923 0 9.23076923"></polygon>
                    <polygon id="矩形备份" points="4.67059566 1.01295061 6.33866554 1.01295061 6.33866554 9.23076923 4.67059566 9.23076923"></polygon>
                    <polygon id="矩形备份-2" points="10.4754788 1.01295061 12.1435487 1.01295061 12.1435487 9.23076923 10.4754788 9.23076923"></polygon>
                    <polygon id="矩形备份-3" points="14.2786782 1.01295061 14.2786782 2.75401388 5.80488317 2.75401388 5.80488317 1.01295061"></polygon>
                    <polygon id="矩形" transform="translate(14.2108, 1.8459) rotate(-315) translate(-14.2108, -1.8459)" points="12.905533 0.540662662 15.4613602 0.595385806 15.5160833 3.15121293"></polygon>
                    <polygon id="矩形备份-4" points="9.27446852 4.21650702 9.27446852 5.95757029 5.4045464 5.95757029 5.4045464 4.21650702"></polygon>
                    <polygon id="矩形备份-5" points="5.80488317 8.62710379 5.12435337 8.98754907 4.66514755 9.23076923 4.31387833 9.23076923 0.533782361 1.65184876 1.60712921 1.01295061 2.0027755 1.01295061"></polygon>
                </g>
                <g id="AveNFT" transform="translate(28, 7)" fill="#313131" fill-rule="nonzero">
                    <path d="M5.83098592,0 L10,10 L7.83098592,10 L6.92957746,7.71857923 L2.91549296,7.71857923 L2.04225352,10 L0,10 L4.04225352,0 L5.83098592,0 Z M6.26760563,6.02459016 L4.88732394,2.5136612 L3.54929577,6.02459016 L6.26760563,6.02459016 Z" id="形状"></path>
                    <polygon id="路径" points="11.2078853 3 13.1290323 7.63056093 14.921147 3 17 3 13.8602151 10 12.2401434 10 9 3"></polygon>
                    <path d="M20.6767677,2 C21.3272727,2 21.9047138,2.14978514 22.4090909,2.44935543 C22.913468,2.74892572 23.3047138,3.17127072 23.5828283,3.71639042 C23.8609428,4.26151013 24,4.88766114 24,5.59484346 C24,5.90914672 23.9717172,6.22836096 23.9151515,6.55248619 L19.0505051,6.55248619 C19.1353535,7.12216083 19.3333333,7.55187231 19.6444444,7.84162063 C19.9555556,8.13136894 20.3420875,8.27624309 20.8040404,8.27624309 C21.1340067,8.27624309 21.4286195,8.20012277 21.6878788,8.04788214 C21.947138,7.8956415 22.1474747,7.66728054 22.2888889,7.36279926 L23.7313131,8.24677716 C23.5333333,8.80662983 23.1538721,9.23879681 22.5929293,9.54327808 C22.0319865,9.84775936 21.4074074,10 20.7191919,10 C20.0592593,10 19.4464646,9.84775936 18.8808081,9.54327808 C18.3151515,9.23879681 17.8602694,8.78207489 17.5161616,8.17311234 C17.1720539,7.56414979 17,6.83241252 17,5.97790055 C17,5.13321056 17.1720539,4.41129527 17.5161616,3.8121547 C17.8602694,3.21301412 18.3104377,2.76120319 18.8666667,2.45672192 C19.4228956,2.15224064 20.0262626,2 20.6767677,2 Z M20.620202,3.66482505 C20.23367,3.66482505 19.9037037,3.79251074 19.630303,4.04788214 C19.3569024,4.30325353 19.173064,4.66175568 19.0787879,5.12338858 L21.9919192,5.12338858 C21.9542088,4.6519337 21.8104377,4.29097606 21.5606061,4.04051565 C21.3107744,3.79005525 20.9973064,3.66482505 20.620202,3.66482505 Z" id="形状"></path>
                    <polygon id="路径" points="27.5420099 0 32.2207578 6.61202186 32.2207578 0 34 0 34 10 32.4448105 10 27.752883 3.37431694 27.752883 10 26 10 26 0"></polygon>
                    <polygon id="路径" points="35 0 41 0 41 1.73497268 36.8238994 1.73497268 36.8238994 4.28961749 40.5597484 4.28961749 40.5597484 6.01092896 36.8238994 6.01092896 36.8238994 10 35 10"></polygon>
                    <polygon id="路径" points="43 0 51 0 51 1.76229508 47.9898305 1.76229508 47.9898305 10 46.0101695 10 46.0101695 1.76229508 43 1.76229508"></polygon>
                </g>
            </g>
        </g>
    </g>
</svg>